<?xml version="1.0" encoding="utf-8"?>
<!-- Generator: Adobe Illustrator 19.0.0, SVG Export Plug-In . SVG Version: 6.00 Build 0)  -->
<!DOCTYPE svg PUBLIC "-//W3C//DTD SVG 1.1//EN" "http://www.w3.org/Graphics/SVG/1.1/DTD/svg11.dtd">
<svg version="1.1" id="Layer_1" xmlns="http://www.w3.org/2000/svg" xmlns:xlink="http://www.w3.org/1999/xlink" x="0px" y="0px"
	 viewBox="0 0 50 50" style="enable-background:new 0 0 50 50;" xml:space="preserve">
<g id="XMLID_17_">
	<path id="XMLID_15_" d="M47.6,34.3c-0.6,5.1-4.4,11.3-11.2,12.7c0.1,0.6,0.2,1.2,0.2,1.8c-0.1,0.9-0.6,1.3-1.5,1.3
		c-0.6,0-1.2,0-1.8,0c-1.2,0-1.8-0.8-1.7-2c0-0.3,0.1-0.6,0.2-0.9c-4.7,0-9.3,0-13.8,0c0,0.6,0.1,1.1,0.1,1.6
		c-0.1,0.8-0.6,1.2-1.4,1.2c-0.7,0-1.4,0-2.1,0c-0.6,0-1-0.3-1.2-0.8c-0.3-0.7-0.2-1.4,0.2-2.2C7.1,45.3,3.6,40.8,2.3,34.3
		C17.5,34.3,32.5,34.3,47.6,34.3z"/>
	<path id="XMLID_14_" d="M2,32.2c-1.1,0-1.6-0.4-1.9-1.4c-0.3-1,0.1-2.2,0.9-2.6C1.3,28,1.6,28,1.9,28l46,0c1.1,0,1.6,0.4,2,1.3
		c0.3,0.9,0.1,2.1-0.6,2.6c-0.3,0.2-0.7,0.3-1.1,0.3L2,32.2z"/>
	<path id="XMLID_13_" d="M44.8,26.2c-0.8,0-1.5,0-2.4,0c0-0.3,0-0.6,0-0.8c0-4.8,0-9.7,0-14.5c0-1.5-0.9-2.6-2.4-2.7
		c-0.4,0-0.8,0.1-1.2,0.1c0.1,0.5,0.3,1,0.4,1.5c0.2,1.1,0,2.1-0.5,3c-0.4,0.7-1,0.9-1.7,0.5c-0.2-0.1-0.5-0.3-0.6-0.5
		c-1.3-1.3-2.6-2.6-3.9-3.9c-0.2-0.2-0.4-0.4-0.5-0.6c-0.4-0.7-0.2-1.3,0.5-1.7c1.4-0.8,2.8-0.8,4.2-0.1c0.2,0.1,0.5,0.1,0.7,0
		c3.5-1.7,7.3,0.5,7.3,4.4c0.1,5,0,10.1,0,15.1C44.9,25.9,44.8,26,44.8,26.2z"/>
	<path id="XMLID_12_" d="M22.2,18.1c-0.5,0-0.9-0.4-0.7-0.8c0.2-0.4,0.4-0.9,0.8-1.2c0.1-0.1,0.6-0.2,0.7-0.1
		c0.2,0.1,0.4,0.5,0.3,0.7c-0.2,0.4-0.4,0.8-0.7,1.2C22.5,18,22.3,18,22.2,18.1z"/>
	<path id="XMLID_11_" d="M31.3,10.1c-0.1,0.1-0.3,0.4-0.5,0.4c-0.5,0.2-1,0.7-1.6,0.3c-0.3-0.2-0.3-0.8,0-1c0.4-0.3,0.9-0.5,1.4-0.6
		C31,9.2,31.3,9.5,31.3,10.1z"/>
	<path id="XMLID_10_" d="M34,17.1c-0.3,0.6-0.6,1.1-0.9,1.5c-0.1,0.1-0.5,0.1-0.7,0c-0.2-0.1-0.4-0.4-0.3-0.6c0.2-0.5,0.4-1,0.7-1.4
		c0.1-0.1,0.5-0.2,0.7-0.1C33.7,16.6,33.8,16.9,34,17.1z"/>
	<path id="XMLID_9_" d="M34.5,15.7c-0.6,0-0.9-0.5-0.7-0.9c0.2-0.4,0.4-0.7,0.7-1.1c0.2-0.3,0.6-0.3,0.9-0.1
		c0.3,0.2,0.4,0.5,0.2,0.8c-0.2,0.4-0.4,0.7-0.7,1C34.8,15.6,34.6,15.7,34.5,15.7z"/>
	<path id="XMLID_8_" d="M29.1,16.1c-0.5,0-0.9-0.5-0.6-0.9c0.3-0.4,0.6-0.8,1-1.1c0.1-0.1,0.5-0.1,0.7,0c0.2,0.1,0.3,0.5,0.2,0.6
		c-0.3,0.5-0.7,0.9-1.1,1.3C29.3,16.1,29.2,16.1,29.1,16.1z"/>
	<path id="XMLID_7_" d="M25.6,13.7c-0.1,0.2-0.2,0.4-0.3,0.5c-0.2,0.3-0.5,0.5-0.7,0.8c-0.3,0.3-0.6,0.3-0.9,0.1
		c-0.3-0.3-0.3-0.6-0.1-0.9c0.3-0.3,0.5-0.6,0.8-0.9c0.2-0.1,0.5-0.2,0.7-0.1C25.4,13.3,25.5,13.5,25.6,13.7z"/>
	<path id="XMLID_6_" d="M26.7,13c-0.3-0.2-0.6-0.4-0.6-0.6c-0.1-0.2,0-0.5,0.1-0.7c0.3-0.3,0.7-0.6,1.1-0.8c0.2-0.1,0.5,0,0.7,0.1
		c0.1,0.1,0.3,0.6,0.2,0.6C27.7,12.2,27.2,12.5,26.7,13z"/>
	<path id="XMLID_5_" d="M27.2,18.9c-0.5,0-0.9-0.4-0.7-0.8c0.2-0.5,0.5-0.9,0.8-1.3c0.1-0.1,0.6-0.2,0.7-0.1
		c0.2,0.1,0.4,0.5,0.3,0.7c-0.2,0.5-0.5,0.9-0.8,1.3C27.5,18.9,27.3,18.9,27.2,18.9z"/>
	<path id="XMLID_4_" d="M32.5,20.2c-0.2,0.6-0.4,1.1-0.7,1.6c-0.1,0.1-0.5,0.2-0.7,0.1c-0.2-0.1-0.4-0.5-0.4-0.7
		c0.1-0.4,0.2-0.9,0.5-1.3c0.1-0.2,0.5-0.3,0.7-0.3C32.2,19.7,32.3,20,32.5,20.2z"/>
	<path id="XMLID_3_" d="M31.4,13.6c-0.1-0.1-0.4-0.2-0.4-0.3c-0.1-0.2-0.1-0.5,0-0.7c0.3-0.3,0.7-0.7,1.1-0.9c0.2-0.1,0.5,0,0.7,0.1
		c0.2,0.1,0.2,0.4,0.2,0.7C33,12.7,31.8,13.6,31.4,13.6z"/>
	<path id="XMLID_2_" d="M24.9,21.4c0.2-0.5,0.4-1,0.7-1.4c0.1-0.2,0.6-0.2,0.7-0.1c0.2,0.1,0.4,0.5,0.3,0.7
		c-0.1,0.4-0.2,0.8-0.5,1.1c-0.1,0.2-0.5,0.3-0.8,0.3C25.2,21.9,25.1,21.6,24.9,21.4z"/>
	<path id="XMLID_1_" d="M31.4,23.5c-0.1,0.4-0.1,0.8-0.3,1c-0.2,0.2-0.5,0.4-0.7,0.4c-0.3,0-0.5-0.3-0.5-0.7c0-0.3,0.1-0.6,0.2-0.9
		c0.1-0.3,0.4-0.5,0.8-0.3C31.1,23.1,31.2,23.3,31.4,23.5z"/>
</g>
</svg>
